M48
INCH,TZ
T1C0.0157
T2C0.0315
%
G90
G05
T1
X56795Y-68575
X57407Y-63367
X57535Y-66047
X57691Y-63084
X57976Y-62810
X58289Y-68191
X58667Y-61835
X58896Y-63336
X58910Y-67085
X58931Y-64929
X59262Y-68301
X59283Y-66291
X59404Y-63361
X59579Y-65929
X59657Y-67909
X60168Y-64492
X60603Y-64617
T2
X55512Y-59449
X55512Y-60449
X55512Y-61449
X55512Y-62449
X55512Y-63449
X55512Y-64449
X55512Y-65449
X55512Y-66449
X55512Y-67449
X55512Y-68449
X55512Y-69449
X55512Y-70449
X55512Y-71449
X55512Y-72449
X61512Y-59449
X61512Y-60449
X61512Y-61449
X61512Y-62449
X61512Y-63449
X61512Y-64449
X61512Y-65449
X61512Y-66449
X61512Y-67449
X61512Y-68449
X61512Y-69449
X61512Y-70449
X61512Y-71449
X61512Y-72449
T0
M30
