G04 #@! TF.GenerationSoftware,KiCad,Pcbnew,(5.1.5)-3*
G04 #@! TF.CreationDate,2021-05-27T18:06:52+01:00*
G04 #@! TF.ProjectId,C595,43353935-2e6b-4696-9361-645f70636258,rev?*
G04 #@! TF.SameCoordinates,Original*
G04 #@! TF.FileFunction,Soldermask,Bot*
G04 #@! TF.FilePolarity,Negative*
%FSLAX46Y46*%
G04 Gerber Fmt 4.6, Leading zero omitted, Abs format (unit mm)*
G04 Created by KiCad (PCBNEW (5.1.5)-3) date 2021-05-27 18:06:52*
%MOMM*%
%LPD*%
G04 APERTURE LIST*
%ADD10C,0.100000*%
G04 APERTURE END LIST*
D10*
G36*
X156488228Y-183201703D02*
G01*
X156643100Y-183265853D01*
X156782481Y-183358985D01*
X156901015Y-183477519D01*
X156994147Y-183616900D01*
X157058297Y-183771772D01*
X157091000Y-183936184D01*
X157091000Y-184103816D01*
X157058297Y-184268228D01*
X156994147Y-184423100D01*
X156901015Y-184562481D01*
X156782481Y-184681015D01*
X156643100Y-184774147D01*
X156488228Y-184838297D01*
X156323816Y-184871000D01*
X156156184Y-184871000D01*
X155991772Y-184838297D01*
X155836900Y-184774147D01*
X155697519Y-184681015D01*
X155578985Y-184562481D01*
X155485853Y-184423100D01*
X155421703Y-184268228D01*
X155389000Y-184103816D01*
X155389000Y-183936184D01*
X155421703Y-183771772D01*
X155485853Y-183616900D01*
X155578985Y-183477519D01*
X155697519Y-183358985D01*
X155836900Y-183265853D01*
X155991772Y-183201703D01*
X156156184Y-183169000D01*
X156323816Y-183169000D01*
X156488228Y-183201703D01*
G37*
G36*
X141248228Y-183201703D02*
G01*
X141403100Y-183265853D01*
X141542481Y-183358985D01*
X141661015Y-183477519D01*
X141754147Y-183616900D01*
X141818297Y-183771772D01*
X141851000Y-183936184D01*
X141851000Y-184103816D01*
X141818297Y-184268228D01*
X141754147Y-184423100D01*
X141661015Y-184562481D01*
X141542481Y-184681015D01*
X141403100Y-184774147D01*
X141248228Y-184838297D01*
X141083816Y-184871000D01*
X140916184Y-184871000D01*
X140751772Y-184838297D01*
X140596900Y-184774147D01*
X140457519Y-184681015D01*
X140338985Y-184562481D01*
X140245853Y-184423100D01*
X140181703Y-184268228D01*
X140149000Y-184103816D01*
X140149000Y-183936184D01*
X140181703Y-183771772D01*
X140245853Y-183616900D01*
X140338985Y-183477519D01*
X140457519Y-183358985D01*
X140596900Y-183265853D01*
X140751772Y-183201703D01*
X140916184Y-183169000D01*
X141083816Y-183169000D01*
X141248228Y-183201703D01*
G37*
G36*
X156488228Y-180661703D02*
G01*
X156643100Y-180725853D01*
X156782481Y-180818985D01*
X156901015Y-180937519D01*
X156994147Y-181076900D01*
X157058297Y-181231772D01*
X157091000Y-181396184D01*
X157091000Y-181563816D01*
X157058297Y-181728228D01*
X156994147Y-181883100D01*
X156901015Y-182022481D01*
X156782481Y-182141015D01*
X156643100Y-182234147D01*
X156488228Y-182298297D01*
X156323816Y-182331000D01*
X156156184Y-182331000D01*
X155991772Y-182298297D01*
X155836900Y-182234147D01*
X155697519Y-182141015D01*
X155578985Y-182022481D01*
X155485853Y-181883100D01*
X155421703Y-181728228D01*
X155389000Y-181563816D01*
X155389000Y-181396184D01*
X155421703Y-181231772D01*
X155485853Y-181076900D01*
X155578985Y-180937519D01*
X155697519Y-180818985D01*
X155836900Y-180725853D01*
X155991772Y-180661703D01*
X156156184Y-180629000D01*
X156323816Y-180629000D01*
X156488228Y-180661703D01*
G37*
G36*
X141248228Y-180661703D02*
G01*
X141403100Y-180725853D01*
X141542481Y-180818985D01*
X141661015Y-180937519D01*
X141754147Y-181076900D01*
X141818297Y-181231772D01*
X141851000Y-181396184D01*
X141851000Y-181563816D01*
X141818297Y-181728228D01*
X141754147Y-181883100D01*
X141661015Y-182022481D01*
X141542481Y-182141015D01*
X141403100Y-182234147D01*
X141248228Y-182298297D01*
X141083816Y-182331000D01*
X140916184Y-182331000D01*
X140751772Y-182298297D01*
X140596900Y-182234147D01*
X140457519Y-182141015D01*
X140338985Y-182022481D01*
X140245853Y-181883100D01*
X140181703Y-181728228D01*
X140149000Y-181563816D01*
X140149000Y-181396184D01*
X140181703Y-181231772D01*
X140245853Y-181076900D01*
X140338985Y-180937519D01*
X140457519Y-180818985D01*
X140596900Y-180725853D01*
X140751772Y-180661703D01*
X140916184Y-180629000D01*
X141083816Y-180629000D01*
X141248228Y-180661703D01*
G37*
G36*
X141248228Y-178121703D02*
G01*
X141403100Y-178185853D01*
X141542481Y-178278985D01*
X141661015Y-178397519D01*
X141754147Y-178536900D01*
X141818297Y-178691772D01*
X141851000Y-178856184D01*
X141851000Y-179023816D01*
X141818297Y-179188228D01*
X141754147Y-179343100D01*
X141661015Y-179482481D01*
X141542481Y-179601015D01*
X141403100Y-179694147D01*
X141248228Y-179758297D01*
X141083816Y-179791000D01*
X140916184Y-179791000D01*
X140751772Y-179758297D01*
X140596900Y-179694147D01*
X140457519Y-179601015D01*
X140338985Y-179482481D01*
X140245853Y-179343100D01*
X140181703Y-179188228D01*
X140149000Y-179023816D01*
X140149000Y-178856184D01*
X140181703Y-178691772D01*
X140245853Y-178536900D01*
X140338985Y-178397519D01*
X140457519Y-178278985D01*
X140596900Y-178185853D01*
X140751772Y-178121703D01*
X140916184Y-178089000D01*
X141083816Y-178089000D01*
X141248228Y-178121703D01*
G37*
G36*
X156488228Y-178121703D02*
G01*
X156643100Y-178185853D01*
X156782481Y-178278985D01*
X156901015Y-178397519D01*
X156994147Y-178536900D01*
X157058297Y-178691772D01*
X157091000Y-178856184D01*
X157091000Y-179023816D01*
X157058297Y-179188228D01*
X156994147Y-179343100D01*
X156901015Y-179482481D01*
X156782481Y-179601015D01*
X156643100Y-179694147D01*
X156488228Y-179758297D01*
X156323816Y-179791000D01*
X156156184Y-179791000D01*
X155991772Y-179758297D01*
X155836900Y-179694147D01*
X155697519Y-179601015D01*
X155578985Y-179482481D01*
X155485853Y-179343100D01*
X155421703Y-179188228D01*
X155389000Y-179023816D01*
X155389000Y-178856184D01*
X155421703Y-178691772D01*
X155485853Y-178536900D01*
X155578985Y-178397519D01*
X155697519Y-178278985D01*
X155836900Y-178185853D01*
X155991772Y-178121703D01*
X156156184Y-178089000D01*
X156323816Y-178089000D01*
X156488228Y-178121703D01*
G37*
G36*
X156488228Y-175581703D02*
G01*
X156643100Y-175645853D01*
X156782481Y-175738985D01*
X156901015Y-175857519D01*
X156994147Y-175996900D01*
X157058297Y-176151772D01*
X157091000Y-176316184D01*
X157091000Y-176483816D01*
X157058297Y-176648228D01*
X156994147Y-176803100D01*
X156901015Y-176942481D01*
X156782481Y-177061015D01*
X156643100Y-177154147D01*
X156488228Y-177218297D01*
X156323816Y-177251000D01*
X156156184Y-177251000D01*
X155991772Y-177218297D01*
X155836900Y-177154147D01*
X155697519Y-177061015D01*
X155578985Y-176942481D01*
X155485853Y-176803100D01*
X155421703Y-176648228D01*
X155389000Y-176483816D01*
X155389000Y-176316184D01*
X155421703Y-176151772D01*
X155485853Y-175996900D01*
X155578985Y-175857519D01*
X155697519Y-175738985D01*
X155836900Y-175645853D01*
X155991772Y-175581703D01*
X156156184Y-175549000D01*
X156323816Y-175549000D01*
X156488228Y-175581703D01*
G37*
G36*
X141248228Y-175581703D02*
G01*
X141403100Y-175645853D01*
X141542481Y-175738985D01*
X141661015Y-175857519D01*
X141754147Y-175996900D01*
X141818297Y-176151772D01*
X141851000Y-176316184D01*
X141851000Y-176483816D01*
X141818297Y-176648228D01*
X141754147Y-176803100D01*
X141661015Y-176942481D01*
X141542481Y-177061015D01*
X141403100Y-177154147D01*
X141248228Y-177218297D01*
X141083816Y-177251000D01*
X140916184Y-177251000D01*
X140751772Y-177218297D01*
X140596900Y-177154147D01*
X140457519Y-177061015D01*
X140338985Y-176942481D01*
X140245853Y-176803100D01*
X140181703Y-176648228D01*
X140149000Y-176483816D01*
X140149000Y-176316184D01*
X140181703Y-176151772D01*
X140245853Y-175996900D01*
X140338985Y-175857519D01*
X140457519Y-175738985D01*
X140596900Y-175645853D01*
X140751772Y-175581703D01*
X140916184Y-175549000D01*
X141083816Y-175549000D01*
X141248228Y-175581703D01*
G37*
G36*
X156488228Y-173041703D02*
G01*
X156643100Y-173105853D01*
X156782481Y-173198985D01*
X156901015Y-173317519D01*
X156994147Y-173456900D01*
X157058297Y-173611772D01*
X157091000Y-173776184D01*
X157091000Y-173943816D01*
X157058297Y-174108228D01*
X156994147Y-174263100D01*
X156901015Y-174402481D01*
X156782481Y-174521015D01*
X156643100Y-174614147D01*
X156488228Y-174678297D01*
X156323816Y-174711000D01*
X156156184Y-174711000D01*
X155991772Y-174678297D01*
X155836900Y-174614147D01*
X155697519Y-174521015D01*
X155578985Y-174402481D01*
X155485853Y-174263100D01*
X155421703Y-174108228D01*
X155389000Y-173943816D01*
X155389000Y-173776184D01*
X155421703Y-173611772D01*
X155485853Y-173456900D01*
X155578985Y-173317519D01*
X155697519Y-173198985D01*
X155836900Y-173105853D01*
X155991772Y-173041703D01*
X156156184Y-173009000D01*
X156323816Y-173009000D01*
X156488228Y-173041703D01*
G37*
G36*
X141248228Y-173041703D02*
G01*
X141403100Y-173105853D01*
X141542481Y-173198985D01*
X141661015Y-173317519D01*
X141754147Y-173456900D01*
X141818297Y-173611772D01*
X141851000Y-173776184D01*
X141851000Y-173943816D01*
X141818297Y-174108228D01*
X141754147Y-174263100D01*
X141661015Y-174402481D01*
X141542481Y-174521015D01*
X141403100Y-174614147D01*
X141248228Y-174678297D01*
X141083816Y-174711000D01*
X140916184Y-174711000D01*
X140751772Y-174678297D01*
X140596900Y-174614147D01*
X140457519Y-174521015D01*
X140338985Y-174402481D01*
X140245853Y-174263100D01*
X140181703Y-174108228D01*
X140149000Y-173943816D01*
X140149000Y-173776184D01*
X140181703Y-173611772D01*
X140245853Y-173456900D01*
X140338985Y-173317519D01*
X140457519Y-173198985D01*
X140596900Y-173105853D01*
X140751772Y-173041703D01*
X140916184Y-173009000D01*
X141083816Y-173009000D01*
X141248228Y-173041703D01*
G37*
G36*
X141248228Y-170501703D02*
G01*
X141403100Y-170565853D01*
X141542481Y-170658985D01*
X141661015Y-170777519D01*
X141754147Y-170916900D01*
X141818297Y-171071772D01*
X141851000Y-171236184D01*
X141851000Y-171403816D01*
X141818297Y-171568228D01*
X141754147Y-171723100D01*
X141661015Y-171862481D01*
X141542481Y-171981015D01*
X141403100Y-172074147D01*
X141248228Y-172138297D01*
X141083816Y-172171000D01*
X140916184Y-172171000D01*
X140751772Y-172138297D01*
X140596900Y-172074147D01*
X140457519Y-171981015D01*
X140338985Y-171862481D01*
X140245853Y-171723100D01*
X140181703Y-171568228D01*
X140149000Y-171403816D01*
X140149000Y-171236184D01*
X140181703Y-171071772D01*
X140245853Y-170916900D01*
X140338985Y-170777519D01*
X140457519Y-170658985D01*
X140596900Y-170565853D01*
X140751772Y-170501703D01*
X140916184Y-170469000D01*
X141083816Y-170469000D01*
X141248228Y-170501703D01*
G37*
G36*
X156488228Y-170501703D02*
G01*
X156643100Y-170565853D01*
X156782481Y-170658985D01*
X156901015Y-170777519D01*
X156994147Y-170916900D01*
X157058297Y-171071772D01*
X157091000Y-171236184D01*
X157091000Y-171403816D01*
X157058297Y-171568228D01*
X156994147Y-171723100D01*
X156901015Y-171862481D01*
X156782481Y-171981015D01*
X156643100Y-172074147D01*
X156488228Y-172138297D01*
X156323816Y-172171000D01*
X156156184Y-172171000D01*
X155991772Y-172138297D01*
X155836900Y-172074147D01*
X155697519Y-171981015D01*
X155578985Y-171862481D01*
X155485853Y-171723100D01*
X155421703Y-171568228D01*
X155389000Y-171403816D01*
X155389000Y-171236184D01*
X155421703Y-171071772D01*
X155485853Y-170916900D01*
X155578985Y-170777519D01*
X155697519Y-170658985D01*
X155836900Y-170565853D01*
X155991772Y-170501703D01*
X156156184Y-170469000D01*
X156323816Y-170469000D01*
X156488228Y-170501703D01*
G37*
G36*
X156488228Y-167961703D02*
G01*
X156643100Y-168025853D01*
X156782481Y-168118985D01*
X156901015Y-168237519D01*
X156994147Y-168376900D01*
X157058297Y-168531772D01*
X157091000Y-168696184D01*
X157091000Y-168863816D01*
X157058297Y-169028228D01*
X156994147Y-169183100D01*
X156901015Y-169322481D01*
X156782481Y-169441015D01*
X156643100Y-169534147D01*
X156488228Y-169598297D01*
X156323816Y-169631000D01*
X156156184Y-169631000D01*
X155991772Y-169598297D01*
X155836900Y-169534147D01*
X155697519Y-169441015D01*
X155578985Y-169322481D01*
X155485853Y-169183100D01*
X155421703Y-169028228D01*
X155389000Y-168863816D01*
X155389000Y-168696184D01*
X155421703Y-168531772D01*
X155485853Y-168376900D01*
X155578985Y-168237519D01*
X155697519Y-168118985D01*
X155836900Y-168025853D01*
X155991772Y-167961703D01*
X156156184Y-167929000D01*
X156323816Y-167929000D01*
X156488228Y-167961703D01*
G37*
G36*
X141248228Y-167961703D02*
G01*
X141403100Y-168025853D01*
X141542481Y-168118985D01*
X141661015Y-168237519D01*
X141754147Y-168376900D01*
X141818297Y-168531772D01*
X141851000Y-168696184D01*
X141851000Y-168863816D01*
X141818297Y-169028228D01*
X141754147Y-169183100D01*
X141661015Y-169322481D01*
X141542481Y-169441015D01*
X141403100Y-169534147D01*
X141248228Y-169598297D01*
X141083816Y-169631000D01*
X140916184Y-169631000D01*
X140751772Y-169598297D01*
X140596900Y-169534147D01*
X140457519Y-169441015D01*
X140338985Y-169322481D01*
X140245853Y-169183100D01*
X140181703Y-169028228D01*
X140149000Y-168863816D01*
X140149000Y-168696184D01*
X140181703Y-168531772D01*
X140245853Y-168376900D01*
X140338985Y-168237519D01*
X140457519Y-168118985D01*
X140596900Y-168025853D01*
X140751772Y-167961703D01*
X140916184Y-167929000D01*
X141083816Y-167929000D01*
X141248228Y-167961703D01*
G37*
G36*
X156488228Y-165421703D02*
G01*
X156643100Y-165485853D01*
X156782481Y-165578985D01*
X156901015Y-165697519D01*
X156994147Y-165836900D01*
X157058297Y-165991772D01*
X157091000Y-166156184D01*
X157091000Y-166323816D01*
X157058297Y-166488228D01*
X156994147Y-166643100D01*
X156901015Y-166782481D01*
X156782481Y-166901015D01*
X156643100Y-166994147D01*
X156488228Y-167058297D01*
X156323816Y-167091000D01*
X156156184Y-167091000D01*
X155991772Y-167058297D01*
X155836900Y-166994147D01*
X155697519Y-166901015D01*
X155578985Y-166782481D01*
X155485853Y-166643100D01*
X155421703Y-166488228D01*
X155389000Y-166323816D01*
X155389000Y-166156184D01*
X155421703Y-165991772D01*
X155485853Y-165836900D01*
X155578985Y-165697519D01*
X155697519Y-165578985D01*
X155836900Y-165485853D01*
X155991772Y-165421703D01*
X156156184Y-165389000D01*
X156323816Y-165389000D01*
X156488228Y-165421703D01*
G37*
G36*
X141248228Y-165421703D02*
G01*
X141403100Y-165485853D01*
X141542481Y-165578985D01*
X141661015Y-165697519D01*
X141754147Y-165836900D01*
X141818297Y-165991772D01*
X141851000Y-166156184D01*
X141851000Y-166323816D01*
X141818297Y-166488228D01*
X141754147Y-166643100D01*
X141661015Y-166782481D01*
X141542481Y-166901015D01*
X141403100Y-166994147D01*
X141248228Y-167058297D01*
X141083816Y-167091000D01*
X140916184Y-167091000D01*
X140751772Y-167058297D01*
X140596900Y-166994147D01*
X140457519Y-166901015D01*
X140338985Y-166782481D01*
X140245853Y-166643100D01*
X140181703Y-166488228D01*
X140149000Y-166323816D01*
X140149000Y-166156184D01*
X140181703Y-165991772D01*
X140245853Y-165836900D01*
X140338985Y-165697519D01*
X140457519Y-165578985D01*
X140596900Y-165485853D01*
X140751772Y-165421703D01*
X140916184Y-165389000D01*
X141083816Y-165389000D01*
X141248228Y-165421703D01*
G37*
G36*
X156488228Y-162881703D02*
G01*
X156643100Y-162945853D01*
X156782481Y-163038985D01*
X156901015Y-163157519D01*
X156994147Y-163296900D01*
X157058297Y-163451772D01*
X157091000Y-163616184D01*
X157091000Y-163783816D01*
X157058297Y-163948228D01*
X156994147Y-164103100D01*
X156901015Y-164242481D01*
X156782481Y-164361015D01*
X156643100Y-164454147D01*
X156488228Y-164518297D01*
X156323816Y-164551000D01*
X156156184Y-164551000D01*
X155991772Y-164518297D01*
X155836900Y-164454147D01*
X155697519Y-164361015D01*
X155578985Y-164242481D01*
X155485853Y-164103100D01*
X155421703Y-163948228D01*
X155389000Y-163783816D01*
X155389000Y-163616184D01*
X155421703Y-163451772D01*
X155485853Y-163296900D01*
X155578985Y-163157519D01*
X155697519Y-163038985D01*
X155836900Y-162945853D01*
X155991772Y-162881703D01*
X156156184Y-162849000D01*
X156323816Y-162849000D01*
X156488228Y-162881703D01*
G37*
G36*
X141248228Y-162881703D02*
G01*
X141403100Y-162945853D01*
X141542481Y-163038985D01*
X141661015Y-163157519D01*
X141754147Y-163296900D01*
X141818297Y-163451772D01*
X141851000Y-163616184D01*
X141851000Y-163783816D01*
X141818297Y-163948228D01*
X141754147Y-164103100D01*
X141661015Y-164242481D01*
X141542481Y-164361015D01*
X141403100Y-164454147D01*
X141248228Y-164518297D01*
X141083816Y-164551000D01*
X140916184Y-164551000D01*
X140751772Y-164518297D01*
X140596900Y-164454147D01*
X140457519Y-164361015D01*
X140338985Y-164242481D01*
X140245853Y-164103100D01*
X140181703Y-163948228D01*
X140149000Y-163783816D01*
X140149000Y-163616184D01*
X140181703Y-163451772D01*
X140245853Y-163296900D01*
X140338985Y-163157519D01*
X140457519Y-163038985D01*
X140596900Y-162945853D01*
X140751772Y-162881703D01*
X140916184Y-162849000D01*
X141083816Y-162849000D01*
X141248228Y-162881703D01*
G37*
G36*
X156488228Y-160341703D02*
G01*
X156643100Y-160405853D01*
X156782481Y-160498985D01*
X156901015Y-160617519D01*
X156994147Y-160756900D01*
X157058297Y-160911772D01*
X157091000Y-161076184D01*
X157091000Y-161243816D01*
X157058297Y-161408228D01*
X156994147Y-161563100D01*
X156901015Y-161702481D01*
X156782481Y-161821015D01*
X156643100Y-161914147D01*
X156488228Y-161978297D01*
X156323816Y-162011000D01*
X156156184Y-162011000D01*
X155991772Y-161978297D01*
X155836900Y-161914147D01*
X155697519Y-161821015D01*
X155578985Y-161702481D01*
X155485853Y-161563100D01*
X155421703Y-161408228D01*
X155389000Y-161243816D01*
X155389000Y-161076184D01*
X155421703Y-160911772D01*
X155485853Y-160756900D01*
X155578985Y-160617519D01*
X155697519Y-160498985D01*
X155836900Y-160405853D01*
X155991772Y-160341703D01*
X156156184Y-160309000D01*
X156323816Y-160309000D01*
X156488228Y-160341703D01*
G37*
G36*
X141248228Y-160341703D02*
G01*
X141403100Y-160405853D01*
X141542481Y-160498985D01*
X141661015Y-160617519D01*
X141754147Y-160756900D01*
X141818297Y-160911772D01*
X141851000Y-161076184D01*
X141851000Y-161243816D01*
X141818297Y-161408228D01*
X141754147Y-161563100D01*
X141661015Y-161702481D01*
X141542481Y-161821015D01*
X141403100Y-161914147D01*
X141248228Y-161978297D01*
X141083816Y-162011000D01*
X140916184Y-162011000D01*
X140751772Y-161978297D01*
X140596900Y-161914147D01*
X140457519Y-161821015D01*
X140338985Y-161702481D01*
X140245853Y-161563100D01*
X140181703Y-161408228D01*
X140149000Y-161243816D01*
X140149000Y-161076184D01*
X140181703Y-160911772D01*
X140245853Y-160756900D01*
X140338985Y-160617519D01*
X140457519Y-160498985D01*
X140596900Y-160405853D01*
X140751772Y-160341703D01*
X140916184Y-160309000D01*
X141083816Y-160309000D01*
X141248228Y-160341703D01*
G37*
G36*
X156488228Y-157801703D02*
G01*
X156643100Y-157865853D01*
X156782481Y-157958985D01*
X156901015Y-158077519D01*
X156994147Y-158216900D01*
X157058297Y-158371772D01*
X157091000Y-158536184D01*
X157091000Y-158703816D01*
X157058297Y-158868228D01*
X156994147Y-159023100D01*
X156901015Y-159162481D01*
X156782481Y-159281015D01*
X156643100Y-159374147D01*
X156488228Y-159438297D01*
X156323816Y-159471000D01*
X156156184Y-159471000D01*
X155991772Y-159438297D01*
X155836900Y-159374147D01*
X155697519Y-159281015D01*
X155578985Y-159162481D01*
X155485853Y-159023100D01*
X155421703Y-158868228D01*
X155389000Y-158703816D01*
X155389000Y-158536184D01*
X155421703Y-158371772D01*
X155485853Y-158216900D01*
X155578985Y-158077519D01*
X155697519Y-157958985D01*
X155836900Y-157865853D01*
X155991772Y-157801703D01*
X156156184Y-157769000D01*
X156323816Y-157769000D01*
X156488228Y-157801703D01*
G37*
G36*
X141248228Y-157801703D02*
G01*
X141403100Y-157865853D01*
X141542481Y-157958985D01*
X141661015Y-158077519D01*
X141754147Y-158216900D01*
X141818297Y-158371772D01*
X141851000Y-158536184D01*
X141851000Y-158703816D01*
X141818297Y-158868228D01*
X141754147Y-159023100D01*
X141661015Y-159162481D01*
X141542481Y-159281015D01*
X141403100Y-159374147D01*
X141248228Y-159438297D01*
X141083816Y-159471000D01*
X140916184Y-159471000D01*
X140751772Y-159438297D01*
X140596900Y-159374147D01*
X140457519Y-159281015D01*
X140338985Y-159162481D01*
X140245853Y-159023100D01*
X140181703Y-158868228D01*
X140149000Y-158703816D01*
X140149000Y-158536184D01*
X140181703Y-158371772D01*
X140245853Y-158216900D01*
X140338985Y-158077519D01*
X140457519Y-157958985D01*
X140596900Y-157865853D01*
X140751772Y-157801703D01*
X140916184Y-157769000D01*
X141083816Y-157769000D01*
X141248228Y-157801703D01*
G37*
G36*
X141248228Y-155261703D02*
G01*
X141403100Y-155325853D01*
X141542481Y-155418985D01*
X141661015Y-155537519D01*
X141754147Y-155676900D01*
X141818297Y-155831772D01*
X141851000Y-155996184D01*
X141851000Y-156163816D01*
X141818297Y-156328228D01*
X141754147Y-156483100D01*
X141661015Y-156622481D01*
X141542481Y-156741015D01*
X141403100Y-156834147D01*
X141248228Y-156898297D01*
X141083816Y-156931000D01*
X140916184Y-156931000D01*
X140751772Y-156898297D01*
X140596900Y-156834147D01*
X140457519Y-156741015D01*
X140338985Y-156622481D01*
X140245853Y-156483100D01*
X140181703Y-156328228D01*
X140149000Y-156163816D01*
X140149000Y-155996184D01*
X140181703Y-155831772D01*
X140245853Y-155676900D01*
X140338985Y-155537519D01*
X140457519Y-155418985D01*
X140596900Y-155325853D01*
X140751772Y-155261703D01*
X140916184Y-155229000D01*
X141083816Y-155229000D01*
X141248228Y-155261703D01*
G37*
G36*
X156488228Y-155261703D02*
G01*
X156643100Y-155325853D01*
X156782481Y-155418985D01*
X156901015Y-155537519D01*
X156994147Y-155676900D01*
X157058297Y-155831772D01*
X157091000Y-155996184D01*
X157091000Y-156163816D01*
X157058297Y-156328228D01*
X156994147Y-156483100D01*
X156901015Y-156622481D01*
X156782481Y-156741015D01*
X156643100Y-156834147D01*
X156488228Y-156898297D01*
X156323816Y-156931000D01*
X156156184Y-156931000D01*
X155991772Y-156898297D01*
X155836900Y-156834147D01*
X155697519Y-156741015D01*
X155578985Y-156622481D01*
X155485853Y-156483100D01*
X155421703Y-156328228D01*
X155389000Y-156163816D01*
X155389000Y-155996184D01*
X155421703Y-155831772D01*
X155485853Y-155676900D01*
X155578985Y-155537519D01*
X155697519Y-155418985D01*
X155836900Y-155325853D01*
X155991772Y-155261703D01*
X156156184Y-155229000D01*
X156323816Y-155229000D01*
X156488228Y-155261703D01*
G37*
G36*
X156488228Y-152721703D02*
G01*
X156643100Y-152785853D01*
X156782481Y-152878985D01*
X156901015Y-152997519D01*
X156994147Y-153136900D01*
X157058297Y-153291772D01*
X157091000Y-153456184D01*
X157091000Y-153623816D01*
X157058297Y-153788228D01*
X156994147Y-153943100D01*
X156901015Y-154082481D01*
X156782481Y-154201015D01*
X156643100Y-154294147D01*
X156488228Y-154358297D01*
X156323816Y-154391000D01*
X156156184Y-154391000D01*
X155991772Y-154358297D01*
X155836900Y-154294147D01*
X155697519Y-154201015D01*
X155578985Y-154082481D01*
X155485853Y-153943100D01*
X155421703Y-153788228D01*
X155389000Y-153623816D01*
X155389000Y-153456184D01*
X155421703Y-153291772D01*
X155485853Y-153136900D01*
X155578985Y-152997519D01*
X155697519Y-152878985D01*
X155836900Y-152785853D01*
X155991772Y-152721703D01*
X156156184Y-152689000D01*
X156323816Y-152689000D01*
X156488228Y-152721703D01*
G37*
G36*
X141248228Y-152721703D02*
G01*
X141403100Y-152785853D01*
X141542481Y-152878985D01*
X141661015Y-152997519D01*
X141754147Y-153136900D01*
X141818297Y-153291772D01*
X141851000Y-153456184D01*
X141851000Y-153623816D01*
X141818297Y-153788228D01*
X141754147Y-153943100D01*
X141661015Y-154082481D01*
X141542481Y-154201015D01*
X141403100Y-154294147D01*
X141248228Y-154358297D01*
X141083816Y-154391000D01*
X140916184Y-154391000D01*
X140751772Y-154358297D01*
X140596900Y-154294147D01*
X140457519Y-154201015D01*
X140338985Y-154082481D01*
X140245853Y-153943100D01*
X140181703Y-153788228D01*
X140149000Y-153623816D01*
X140149000Y-153456184D01*
X140181703Y-153291772D01*
X140245853Y-153136900D01*
X140338985Y-152997519D01*
X140457519Y-152878985D01*
X140596900Y-152785853D01*
X140751772Y-152721703D01*
X140916184Y-152689000D01*
X141083816Y-152689000D01*
X141248228Y-152721703D01*
G37*
G36*
X141851000Y-151851000D02*
G01*
X140149000Y-151851000D01*
X140149000Y-150149000D01*
X141851000Y-150149000D01*
X141851000Y-151851000D01*
G37*
G36*
X156488228Y-150181703D02*
G01*
X156643100Y-150245853D01*
X156782481Y-150338985D01*
X156901015Y-150457519D01*
X156994147Y-150596900D01*
X157058297Y-150751772D01*
X157091000Y-150916184D01*
X157091000Y-151083816D01*
X157058297Y-151248228D01*
X156994147Y-151403100D01*
X156901015Y-151542481D01*
X156782481Y-151661015D01*
X156643100Y-151754147D01*
X156488228Y-151818297D01*
X156323816Y-151851000D01*
X156156184Y-151851000D01*
X155991772Y-151818297D01*
X155836900Y-151754147D01*
X155697519Y-151661015D01*
X155578985Y-151542481D01*
X155485853Y-151403100D01*
X155421703Y-151248228D01*
X155389000Y-151083816D01*
X155389000Y-150916184D01*
X155421703Y-150751772D01*
X155485853Y-150596900D01*
X155578985Y-150457519D01*
X155697519Y-150338985D01*
X155836900Y-150245853D01*
X155991772Y-150181703D01*
X156156184Y-150149000D01*
X156323816Y-150149000D01*
X156488228Y-150181703D01*
G37*
M02*
