G04 #@! TF.GenerationSoftware,KiCad,Pcbnew,(5.1.5)-3*
G04 #@! TF.CreationDate,2021-05-27T18:06:51+01:00*
G04 #@! TF.ProjectId,C595,43353935-2e6b-4696-9361-645f70636258,rev?*
G04 #@! TF.SameCoordinates,Original*
G04 #@! TF.FileFunction,Copper,L1,Top*
G04 #@! TF.FilePolarity,Positive*
%FSLAX46Y46*%
G04 Gerber Fmt 4.6, Leading zero omitted, Abs format (unit mm)*
G04 Created by KiCad (PCBNEW (5.1.5)-3) date 2021-05-27 18:06:51*
%MOMM*%
%LPD*%
G04 APERTURE LIST*
%ADD10O,1.600000X1.600000*%
%ADD11R,1.600000X1.600000*%
%ADD12C,0.100000*%
%ADD13R,0.500000X0.900000*%
%ADD14R,1.000000X1.250000*%
%ADD15R,2.400000X0.740000*%
%ADD16C,0.800000*%
%ADD17C,0.250000*%
G04 APERTURE END LIST*
D10*
X156240000Y-151000000D03*
X141000000Y-184020000D03*
X156240000Y-153540000D03*
X141000000Y-181480000D03*
X156240000Y-156080000D03*
X141000000Y-178940000D03*
X156240000Y-158620000D03*
X141000000Y-176400000D03*
X156240000Y-161160000D03*
X141000000Y-173860000D03*
X156240000Y-163700000D03*
X141000000Y-171320000D03*
X156240000Y-166240000D03*
X141000000Y-168780000D03*
X156240000Y-168780000D03*
X141000000Y-166240000D03*
X156240000Y-171320000D03*
X141000000Y-163700000D03*
X156240000Y-173860000D03*
X141000000Y-161160000D03*
X156240000Y-176400000D03*
X141000000Y-158620000D03*
X156240000Y-178940000D03*
X141000000Y-156080000D03*
X156240000Y-181480000D03*
X141000000Y-153540000D03*
X156240000Y-184020000D03*
D11*
X141000000Y-151000000D03*
G04 #@! TA.AperFunction,SMDPad,CuDef*
D12*
G36*
X152724963Y-168154074D02*
G01*
X153113872Y-167765165D01*
X154245243Y-168896536D01*
X153856334Y-169285445D01*
X152724963Y-168154074D01*
G37*
G04 #@! TD.AperFunction*
G04 #@! TA.AperFunction,SMDPad,CuDef*
G36*
X152159277Y-168719759D02*
G01*
X152548186Y-168330850D01*
X153679557Y-169462221D01*
X153290648Y-169851130D01*
X152159277Y-168719759D01*
G37*
G04 #@! TD.AperFunction*
G04 #@! TA.AperFunction,SMDPad,CuDef*
G36*
X151593592Y-169285445D02*
G01*
X151982501Y-168896536D01*
X153113872Y-170027907D01*
X152724963Y-170416816D01*
X151593592Y-169285445D01*
G37*
G04 #@! TD.AperFunction*
G04 #@! TA.AperFunction,SMDPad,CuDef*
G36*
X151027907Y-169851130D02*
G01*
X151416816Y-169462221D01*
X152548187Y-170593592D01*
X152159278Y-170982501D01*
X151027907Y-169851130D01*
G37*
G04 #@! TD.AperFunction*
G04 #@! TA.AperFunction,SMDPad,CuDef*
G36*
X150462221Y-170416816D02*
G01*
X150851130Y-170027907D01*
X151982501Y-171159278D01*
X151593592Y-171548187D01*
X150462221Y-170416816D01*
G37*
G04 #@! TD.AperFunction*
G04 #@! TA.AperFunction,SMDPad,CuDef*
G36*
X149896536Y-170982501D02*
G01*
X150285445Y-170593592D01*
X151416816Y-171724963D01*
X151027907Y-172113872D01*
X149896536Y-170982501D01*
G37*
G04 #@! TD.AperFunction*
G04 #@! TA.AperFunction,SMDPad,CuDef*
G36*
X149330850Y-171548186D02*
G01*
X149719759Y-171159277D01*
X150851130Y-172290648D01*
X150462221Y-172679557D01*
X149330850Y-171548186D01*
G37*
G04 #@! TD.AperFunction*
G04 #@! TA.AperFunction,SMDPad,CuDef*
G36*
X148765165Y-172113872D02*
G01*
X149154074Y-171724963D01*
X150285445Y-172856334D01*
X149896536Y-173245243D01*
X148765165Y-172113872D01*
G37*
G04 #@! TD.AperFunction*
G04 #@! TA.AperFunction,SMDPad,CuDef*
G36*
X147845926Y-171724963D02*
G01*
X148234835Y-172113872D01*
X147103464Y-173245243D01*
X146714555Y-172856334D01*
X147845926Y-171724963D01*
G37*
G04 #@! TD.AperFunction*
G04 #@! TA.AperFunction,SMDPad,CuDef*
G36*
X147280241Y-171159277D02*
G01*
X147669150Y-171548186D01*
X146537779Y-172679557D01*
X146148870Y-172290648D01*
X147280241Y-171159277D01*
G37*
G04 #@! TD.AperFunction*
G04 #@! TA.AperFunction,SMDPad,CuDef*
G36*
X146714555Y-170593592D02*
G01*
X147103464Y-170982501D01*
X145972093Y-172113872D01*
X145583184Y-171724963D01*
X146714555Y-170593592D01*
G37*
G04 #@! TD.AperFunction*
G04 #@! TA.AperFunction,SMDPad,CuDef*
G36*
X146148870Y-170027907D02*
G01*
X146537779Y-170416816D01*
X145406408Y-171548187D01*
X145017499Y-171159278D01*
X146148870Y-170027907D01*
G37*
G04 #@! TD.AperFunction*
G04 #@! TA.AperFunction,SMDPad,CuDef*
G36*
X145583184Y-169462221D02*
G01*
X145972093Y-169851130D01*
X144840722Y-170982501D01*
X144451813Y-170593592D01*
X145583184Y-169462221D01*
G37*
G04 #@! TD.AperFunction*
G04 #@! TA.AperFunction,SMDPad,CuDef*
G36*
X145017499Y-168896536D02*
G01*
X145406408Y-169285445D01*
X144275037Y-170416816D01*
X143886128Y-170027907D01*
X145017499Y-168896536D01*
G37*
G04 #@! TD.AperFunction*
G04 #@! TA.AperFunction,SMDPad,CuDef*
G36*
X144451814Y-168330850D02*
G01*
X144840723Y-168719759D01*
X143709352Y-169851130D01*
X143320443Y-169462221D01*
X144451814Y-168330850D01*
G37*
G04 #@! TD.AperFunction*
G04 #@! TA.AperFunction,SMDPad,CuDef*
G36*
X143886128Y-167765165D02*
G01*
X144275037Y-168154074D01*
X143143666Y-169285445D01*
X142754757Y-168896536D01*
X143886128Y-167765165D01*
G37*
G04 #@! TD.AperFunction*
G04 #@! TA.AperFunction,SMDPad,CuDef*
G36*
X142754757Y-166103464D02*
G01*
X143143666Y-165714555D01*
X144275037Y-166845926D01*
X143886128Y-167234835D01*
X142754757Y-166103464D01*
G37*
G04 #@! TD.AperFunction*
G04 #@! TA.AperFunction,SMDPad,CuDef*
G36*
X143320443Y-165537779D02*
G01*
X143709352Y-165148870D01*
X144840723Y-166280241D01*
X144451814Y-166669150D01*
X143320443Y-165537779D01*
G37*
G04 #@! TD.AperFunction*
G04 #@! TA.AperFunction,SMDPad,CuDef*
G36*
X143886128Y-164972093D02*
G01*
X144275037Y-164583184D01*
X145406408Y-165714555D01*
X145017499Y-166103464D01*
X143886128Y-164972093D01*
G37*
G04 #@! TD.AperFunction*
G04 #@! TA.AperFunction,SMDPad,CuDef*
G36*
X144451813Y-164406408D02*
G01*
X144840722Y-164017499D01*
X145972093Y-165148870D01*
X145583184Y-165537779D01*
X144451813Y-164406408D01*
G37*
G04 #@! TD.AperFunction*
G04 #@! TA.AperFunction,SMDPad,CuDef*
G36*
X145017499Y-163840722D02*
G01*
X145406408Y-163451813D01*
X146537779Y-164583184D01*
X146148870Y-164972093D01*
X145017499Y-163840722D01*
G37*
G04 #@! TD.AperFunction*
G04 #@! TA.AperFunction,SMDPad,CuDef*
G36*
X145583184Y-163275037D02*
G01*
X145972093Y-162886128D01*
X147103464Y-164017499D01*
X146714555Y-164406408D01*
X145583184Y-163275037D01*
G37*
G04 #@! TD.AperFunction*
G04 #@! TA.AperFunction,SMDPad,CuDef*
G36*
X146148870Y-162709352D02*
G01*
X146537779Y-162320443D01*
X147669150Y-163451814D01*
X147280241Y-163840723D01*
X146148870Y-162709352D01*
G37*
G04 #@! TD.AperFunction*
G04 #@! TA.AperFunction,SMDPad,CuDef*
G36*
X146714555Y-162143666D02*
G01*
X147103464Y-161754757D01*
X148234835Y-162886128D01*
X147845926Y-163275037D01*
X146714555Y-162143666D01*
G37*
G04 #@! TD.AperFunction*
G04 #@! TA.AperFunction,SMDPad,CuDef*
G36*
X149896536Y-161754757D02*
G01*
X150285445Y-162143666D01*
X149154074Y-163275037D01*
X148765165Y-162886128D01*
X149896536Y-161754757D01*
G37*
G04 #@! TD.AperFunction*
G04 #@! TA.AperFunction,SMDPad,CuDef*
G36*
X150462221Y-162320443D02*
G01*
X150851130Y-162709352D01*
X149719759Y-163840723D01*
X149330850Y-163451814D01*
X150462221Y-162320443D01*
G37*
G04 #@! TD.AperFunction*
G04 #@! TA.AperFunction,SMDPad,CuDef*
G36*
X151027907Y-162886128D02*
G01*
X151416816Y-163275037D01*
X150285445Y-164406408D01*
X149896536Y-164017499D01*
X151027907Y-162886128D01*
G37*
G04 #@! TD.AperFunction*
G04 #@! TA.AperFunction,SMDPad,CuDef*
G36*
X151593592Y-163451813D02*
G01*
X151982501Y-163840722D01*
X150851130Y-164972093D01*
X150462221Y-164583184D01*
X151593592Y-163451813D01*
G37*
G04 #@! TD.AperFunction*
G04 #@! TA.AperFunction,SMDPad,CuDef*
G36*
X152159278Y-164017499D02*
G01*
X152548187Y-164406408D01*
X151416816Y-165537779D01*
X151027907Y-165148870D01*
X152159278Y-164017499D01*
G37*
G04 #@! TD.AperFunction*
G04 #@! TA.AperFunction,SMDPad,CuDef*
G36*
X152724963Y-164583184D02*
G01*
X153113872Y-164972093D01*
X151982501Y-166103464D01*
X151593592Y-165714555D01*
X152724963Y-164583184D01*
G37*
G04 #@! TD.AperFunction*
G04 #@! TA.AperFunction,SMDPad,CuDef*
G36*
X153290648Y-165148870D02*
G01*
X153679557Y-165537779D01*
X152548186Y-166669150D01*
X152159277Y-166280241D01*
X153290648Y-165148870D01*
G37*
G04 #@! TD.AperFunction*
G04 #@! TA.AperFunction,SMDPad,CuDef*
G36*
X153856334Y-165714555D02*
G01*
X154245243Y-166103464D01*
X153113872Y-167234835D01*
X152724963Y-166845926D01*
X153856334Y-165714555D01*
G37*
G04 #@! TD.AperFunction*
G04 #@! TA.AperFunction,SMDPad,CuDef*
G36*
X143066662Y-171917992D02*
G01*
X143596992Y-171387662D01*
X144162678Y-171953348D01*
X143632348Y-172483678D01*
X143066662Y-171917992D01*
G37*
G04 #@! TD.AperFunction*
G04 #@! TA.AperFunction,SMDPad,CuDef*
G36*
X144127322Y-172978652D02*
G01*
X144657652Y-172448322D01*
X145223338Y-173014008D01*
X144693008Y-173544338D01*
X144127322Y-172978652D01*
G37*
G04 #@! TD.AperFunction*
G04 #@! TA.AperFunction,SMDPad,CuDef*
G36*
X153306678Y-161920348D02*
G01*
X152776348Y-162450678D01*
X152210662Y-161884992D01*
X152740992Y-161354662D01*
X153306678Y-161920348D01*
G37*
G04 #@! TD.AperFunction*
G04 #@! TA.AperFunction,SMDPad,CuDef*
G36*
X154367338Y-162981008D02*
G01*
X153837008Y-163511338D01*
X153271322Y-162945652D01*
X153801652Y-162415322D01*
X154367338Y-162981008D01*
G37*
G04 #@! TD.AperFunction*
D13*
X149340000Y-176276000D03*
X147840000Y-176276000D03*
D14*
X149336000Y-182880000D03*
X147336000Y-182880000D03*
D15*
X150540000Y-156083000D03*
X146640000Y-156083000D03*
X150540000Y-154813000D03*
X146640000Y-154813000D03*
X150540000Y-153543000D03*
X146640000Y-153543000D03*
D16*
X149684800Y-164919100D03*
X152827500Y-163809100D03*
X144258400Y-174180800D03*
X149597000Y-160873500D03*
X150886800Y-160937100D03*
X153932400Y-164126300D03*
X150579800Y-168378600D03*
X145814500Y-160952500D03*
X149631600Y-170396100D03*
X149014700Y-157061200D03*
X151529200Y-172489000D03*
X150526000Y-173485800D03*
X148054000Y-173203900D03*
X146534400Y-160234000D03*
X146139200Y-167759500D03*
X151330000Y-167460300D03*
X147259800Y-159536600D03*
D17*
X152065300Y-153543000D02*
X153369000Y-154846700D01*
X153369000Y-154846700D02*
X153369000Y-156428100D01*
X153369000Y-156428100D02*
X153819300Y-156878400D01*
X153819300Y-156878400D02*
X153819300Y-161972800D01*
X153819300Y-161972800D02*
X154314600Y-162468000D01*
X153819300Y-162963300D02*
X154314600Y-162468000D01*
X150540000Y-153543000D02*
X152065300Y-153543000D01*
X146007700Y-168484800D02*
X146439700Y-168484800D01*
X146439700Y-168484800D02*
X149684800Y-165239700D01*
X149684800Y-165239700D02*
X149684800Y-164919100D01*
X144876300Y-168295300D02*
X144876300Y-168295400D01*
X144876300Y-168295400D02*
X145649400Y-168295400D01*
X145649400Y-168295400D02*
X145838800Y-168484800D01*
X145838800Y-168484800D02*
X146007700Y-168484800D01*
X146007700Y-168484800D02*
X146007700Y-169426700D01*
X146296300Y-177244400D02*
X146060300Y-177480400D01*
X146060300Y-177480400D02*
X146060300Y-183841500D01*
X146060300Y-183841500D02*
X146576500Y-184357700D01*
X146576500Y-184357700D02*
X154777000Y-184357700D01*
X154777000Y-184357700D02*
X155114700Y-184020000D01*
X147264700Y-176276000D02*
X146296300Y-177244400D01*
X143119500Y-172430900D02*
X143533100Y-172844600D01*
X143533100Y-172844600D02*
X143533100Y-174481200D01*
X143533100Y-174481200D02*
X146296300Y-177244400D01*
X143614700Y-171935700D02*
X143119500Y-172430900D01*
X143698700Y-171851700D02*
X143614700Y-171935700D01*
X143698700Y-171851700D02*
X144110000Y-171440400D01*
X156240000Y-184020000D02*
X155114700Y-184020000D01*
X144416300Y-171018100D02*
X144416300Y-171134100D01*
X144416300Y-171134100D02*
X144110000Y-171440400D01*
X147840000Y-176276000D02*
X147264700Y-176276000D01*
X149861000Y-164442000D02*
X149861000Y-164742900D01*
X149861000Y-164742900D02*
X149684800Y-164919100D01*
X152827500Y-163809100D02*
X153178100Y-163458500D01*
X153178100Y-163458500D02*
X153324000Y-163458500D01*
X153324000Y-163458500D02*
X153324100Y-163458500D01*
X152827500Y-163809100D02*
X152756500Y-163809100D01*
X152756500Y-163809100D02*
X151788000Y-164777600D01*
X153819300Y-162963300D02*
X153324100Y-163458500D01*
X145212000Y-170222400D02*
X146007700Y-169426700D01*
X144080600Y-169091000D02*
X144876300Y-168295300D01*
X150656700Y-163646300D02*
X149861000Y-164442000D01*
X145212000Y-170222400D02*
X144416300Y-171018100D01*
X150540000Y-156083000D02*
X152065300Y-156083000D01*
X152065300Y-156083000D02*
X152065300Y-161465700D01*
X152065300Y-161465700D02*
X152502300Y-161902700D01*
X152502300Y-161902700D02*
X152502300Y-162932100D01*
X152502300Y-162932100D02*
X151222400Y-164212000D01*
X152758700Y-161902700D02*
X152502300Y-161902700D01*
X145777600Y-170788000D02*
X144981900Y-171583700D01*
X144675300Y-172996300D02*
X145170600Y-172501000D01*
X144981900Y-171583700D02*
X145170500Y-171772300D01*
X145170500Y-171772300D02*
X145170500Y-172501000D01*
X145170500Y-172501000D02*
X145170600Y-172501000D01*
X150992200Y-165573400D02*
X145777600Y-170788000D01*
X144675300Y-172996300D02*
X144180100Y-173491500D01*
X144180100Y-173491500D02*
X144258400Y-173569900D01*
X144258400Y-173569900D02*
X144258400Y-174180800D01*
X151558000Y-166139000D02*
X151557800Y-166139000D01*
X151557800Y-166139000D02*
X150992200Y-165573400D01*
X150426700Y-165007700D02*
X150426700Y-165007900D01*
X150426700Y-165007900D02*
X150992200Y-165573400D01*
X151222400Y-164212000D02*
X150426700Y-165007700D01*
X152353700Y-165343300D02*
X151558000Y-166139000D01*
X146679100Y-161719200D02*
X148205500Y-160192800D01*
X148205500Y-160192800D02*
X148205500Y-153841600D01*
X148205500Y-153841600D02*
X151047100Y-151000000D01*
X151047100Y-151000000D02*
X156240000Y-151000000D01*
X147474700Y-162514900D02*
X146679100Y-161719200D01*
X150321000Y-161719200D02*
X149597000Y-160995300D01*
X149597000Y-160995300D02*
X149597000Y-160873500D01*
X149525300Y-162514900D02*
X150321000Y-161719200D01*
X150886800Y-162284800D02*
X150886800Y-160937100D01*
X150091000Y-163080600D02*
X150886800Y-162284800D01*
X152919400Y-165909000D02*
X153932400Y-164896000D01*
X153932400Y-164896000D02*
X153932400Y-164126300D01*
X154280800Y-165679000D02*
X155114700Y-164845100D01*
X155114700Y-164845100D02*
X155114700Y-163129200D01*
X155114700Y-163129200D02*
X155958600Y-162285300D01*
X155958600Y-162285300D02*
X156240000Y-162285300D01*
X153485100Y-166474700D02*
X154280800Y-165679000D01*
X156240000Y-161160000D02*
X156240000Y-162285300D01*
X156240000Y-163700000D02*
X156240000Y-164825300D01*
X153485100Y-168525300D02*
X153485100Y-167403300D01*
X153485100Y-167403300D02*
X156063100Y-164825300D01*
X156063100Y-164825300D02*
X156240000Y-164825300D01*
X150426700Y-169992300D02*
X150579800Y-169839200D01*
X150579800Y-169839200D02*
X150579800Y-168378600D01*
X151222400Y-170788000D02*
X150426700Y-169992300D01*
X145814500Y-160952500D02*
X144636900Y-159774900D01*
X144636900Y-159774900D02*
X144636900Y-154020800D01*
X144636900Y-154020800D02*
X145114700Y-153543000D01*
X141000000Y-168780000D02*
X142125300Y-168780000D01*
X142125300Y-168780000D02*
X142125300Y-167864300D01*
X142125300Y-167864300D02*
X143514900Y-166474700D01*
X146640000Y-153543000D02*
X145114700Y-153543000D01*
X149861000Y-170558000D02*
X149793500Y-170558000D01*
X149793500Y-170558000D02*
X149631600Y-170396100D01*
X150656700Y-171353700D02*
X149861000Y-170558000D01*
X144080600Y-165909000D02*
X143284800Y-165113200D01*
X141000000Y-166240000D02*
X142125300Y-166240000D01*
X149014700Y-154813000D02*
X149014700Y-157061200D01*
X150540000Y-154813000D02*
X149014700Y-154813000D01*
X143284800Y-165113200D02*
X142158000Y-166240000D01*
X142158000Y-166240000D02*
X142125300Y-166240000D01*
X150091000Y-171919400D02*
X150886800Y-172715200D01*
X150886800Y-172715200D02*
X151113000Y-172489000D01*
X151113000Y-172489000D02*
X151529200Y-172489000D01*
X144646300Y-165343300D02*
X143003000Y-163700000D01*
X143003000Y-163700000D02*
X141000000Y-163700000D01*
X149525300Y-172485100D02*
X150526000Y-173485800D01*
X147474700Y-172485100D02*
X147474700Y-172624600D01*
X147474700Y-172624600D02*
X148054000Y-173203900D01*
X144416300Y-163981900D02*
X142125300Y-161690900D01*
X142125300Y-161690900D02*
X142125300Y-160589200D01*
X142125300Y-160589200D02*
X141281400Y-159745300D01*
X141281400Y-159745300D02*
X141000000Y-159745300D01*
X145212000Y-164777600D02*
X144416300Y-163981900D01*
X141000000Y-158620000D02*
X141000000Y-159745300D01*
X156240000Y-178940000D02*
X155114700Y-178940000D01*
X146909000Y-171919400D02*
X146113200Y-172715200D01*
X146113200Y-172715200D02*
X148415400Y-175017400D01*
X148415400Y-175017400D02*
X148415400Y-179548100D01*
X148415400Y-179548100D02*
X146510600Y-181452900D01*
X146510600Y-181452900D02*
X146510600Y-183654900D01*
X146510600Y-183654900D02*
X146706900Y-183851200D01*
X146706900Y-183851200D02*
X150203500Y-183851200D01*
X150203500Y-183851200D02*
X155114700Y-178940000D01*
X141000000Y-156080000D02*
X141000000Y-157205300D01*
X145777600Y-164212000D02*
X142584600Y-161019000D01*
X142584600Y-161019000D02*
X142584600Y-158508600D01*
X142584600Y-158508600D02*
X141281300Y-157205300D01*
X141281300Y-157205300D02*
X141000000Y-157205300D01*
X145114700Y-154813000D02*
X145114700Y-158814300D01*
X145114700Y-158814300D02*
X146534400Y-160234000D01*
X146640000Y-154813000D02*
X145114700Y-154813000D01*
X143514900Y-168525300D02*
X144310600Y-167729600D01*
X144310600Y-167729600D02*
X144340400Y-167759500D01*
X144340400Y-167759500D02*
X146139200Y-167759500D01*
X141000000Y-153540000D02*
X141000000Y-154665300D01*
X146343300Y-163646300D02*
X143208700Y-160511700D01*
X143208700Y-160511700D02*
X143208700Y-156592700D01*
X143208700Y-156592700D02*
X141281300Y-154665300D01*
X141281300Y-154665300D02*
X141000000Y-154665300D01*
X146909000Y-163080600D02*
X143763800Y-159935400D01*
X143763800Y-159935400D02*
X143763800Y-154607800D01*
X143763800Y-154607800D02*
X141281300Y-152125300D01*
X141281300Y-152125300D02*
X141000000Y-152125300D01*
X141000000Y-151000000D02*
X141000000Y-152125300D01*
X152919400Y-169091000D02*
X153715200Y-169886800D01*
X149336000Y-182880000D02*
X150161300Y-182880000D01*
X150161300Y-182880000D02*
X153715200Y-179326100D01*
X153715200Y-179326100D02*
X153715200Y-169886800D01*
X152353700Y-169656700D02*
X153149400Y-170452400D01*
X147336000Y-182880000D02*
X148161300Y-182880000D01*
X148161300Y-182880000D02*
X148161300Y-182054700D01*
X148161300Y-182054700D02*
X153149400Y-177066600D01*
X153149400Y-177066600D02*
X153149400Y-170452400D01*
X146640000Y-156083000D02*
X146640000Y-158916800D01*
X146640000Y-158916800D02*
X147259800Y-159536600D01*
X151788000Y-170222400D02*
X152583700Y-171018100D01*
X149340000Y-176276000D02*
X149915300Y-176276000D01*
X149915300Y-176276000D02*
X152583700Y-173607600D01*
X152583700Y-173607600D02*
X152583700Y-171018100D01*
X151330000Y-167460300D02*
X151330000Y-168915100D01*
X151330000Y-168915100D02*
X151259100Y-168986000D01*
X151259100Y-168986000D02*
X151259100Y-169693500D01*
X151259100Y-169693500D02*
X151788000Y-170222400D01*
M02*
