G04 #@! TF.GenerationSoftware,KiCad,Pcbnew,(5.1.5)-3*
G04 #@! TF.CreationDate,2021-05-27T18:06:52+01:00*
G04 #@! TF.ProjectId,C595,43353935-2e6b-4696-9361-645f70636258,rev?*
G04 #@! TF.SameCoordinates,Original*
G04 #@! TF.FileFunction,Legend,Top*
G04 #@! TF.FilePolarity,Positive*
%FSLAX46Y46*%
G04 Gerber Fmt 4.6, Leading zero omitted, Abs format (unit mm)*
G04 Created by KiCad (PCBNEW (5.1.5)-3) date 2021-05-27 18:06:52*
%MOMM*%
%LPD*%
G04 APERTURE LIST*
%ADD10C,0.120000*%
%ADD11C,0.150000*%
G04 APERTURE END LIST*
D10*
X155080000Y-149670000D02*
X149620000Y-149670000D01*
X155080000Y-185350000D02*
X155080000Y-149670000D01*
X142160000Y-185350000D02*
X155080000Y-185350000D01*
X142160000Y-149670000D02*
X142160000Y-185350000D01*
X147620000Y-149670000D02*
X142160000Y-149670000D01*
X149620000Y-149670000D02*
G75*
G02X147620000Y-149670000I-1000000J0D01*
G01*
D11*
X153467425Y-167340901D02*
X154475052Y-166333274D01*
X148500000Y-172626524D02*
X148729810Y-172396714D01*
X143373476Y-167500000D02*
X143603286Y-167270190D01*
X148500000Y-162373476D02*
X148270190Y-162603286D01*
X153626524Y-167500000D02*
X153396714Y-167729810D01*
X148500000Y-162373476D02*
X148729810Y-162603286D01*
X143373476Y-167500000D02*
X143603286Y-167729810D01*
X148500000Y-172626524D02*
X148270190Y-172396714D01*
X153626524Y-167500000D02*
X153467425Y-167340901D01*
D10*
X144321777Y-171794249D02*
X144816751Y-172289223D01*
X143968223Y-173137751D02*
X143473249Y-172642777D01*
X153465777Y-161761249D02*
X153960751Y-162256223D01*
X153112223Y-163104751D02*
X152617249Y-162609777D01*
X148090000Y-175596000D02*
X149090000Y-175596000D01*
X149090000Y-176956000D02*
X148090000Y-176956000D01*
X147836000Y-183730000D02*
X148836000Y-183730000D01*
X148836000Y-182030000D02*
X147836000Y-182030000D01*
X150355000Y-156713000D02*
X150355000Y-156778000D01*
X146825000Y-156713000D02*
X146825000Y-156778000D01*
X150355000Y-152848000D02*
X150355000Y-152913000D01*
X146825000Y-152848000D02*
X146825000Y-152913000D01*
X145500000Y-152913000D02*
X146825000Y-152913000D01*
X146825000Y-156778000D02*
X150355000Y-156778000D01*
X146825000Y-152848000D02*
X150355000Y-152848000D01*
D11*
X147334285Y-148122380D02*
X147334285Y-148836666D01*
X147286666Y-148979523D01*
X147191428Y-149074761D01*
X147048571Y-149122380D01*
X146953333Y-149122380D01*
X148334285Y-149122380D02*
X147762857Y-149122380D01*
X148048571Y-149122380D02*
X148048571Y-148122380D01*
X147953333Y-148265238D01*
X147858095Y-148360476D01*
X147762857Y-148408095D01*
X148953333Y-148122380D02*
X149048571Y-148122380D01*
X149143809Y-148170000D01*
X149191428Y-148217619D01*
X149239047Y-148312857D01*
X149286666Y-148503333D01*
X149286666Y-148741428D01*
X149239047Y-148931904D01*
X149191428Y-149027142D01*
X149143809Y-149074761D01*
X149048571Y-149122380D01*
X148953333Y-149122380D01*
X148858095Y-149074761D01*
X148810476Y-149027142D01*
X148762857Y-148931904D01*
X148715238Y-148741428D01*
X148715238Y-148503333D01*
X148762857Y-148312857D01*
X148810476Y-148217619D01*
X148858095Y-148170000D01*
X148953333Y-148122380D01*
X150239047Y-149122380D02*
X149667619Y-149122380D01*
X149953333Y-149122380D02*
X149953333Y-148122380D01*
X149858095Y-148265238D01*
X149762857Y-148360476D01*
X149667619Y-148408095D01*
X151178587Y-172602953D02*
X151751007Y-173175373D01*
X151852022Y-173209045D01*
X151919366Y-173209045D01*
X152020381Y-173175373D01*
X152155068Y-173040686D01*
X152188740Y-172939671D01*
X152188740Y-172872327D01*
X152155068Y-172771312D01*
X151582648Y-172198892D01*
X152996862Y-172198892D02*
X152592801Y-172602953D01*
X152794831Y-172400923D02*
X152087725Y-171693816D01*
X152121396Y-171862175D01*
X152121396Y-171996862D01*
X152087725Y-172097877D01*
X152727488Y-171054053D02*
X152794831Y-170986709D01*
X152895847Y-170953038D01*
X152963190Y-170953038D01*
X153064205Y-170986709D01*
X153232564Y-171087725D01*
X153400923Y-171256083D01*
X153501938Y-171424442D01*
X153535610Y-171525457D01*
X153535610Y-171592801D01*
X153501938Y-171693816D01*
X153434595Y-171761160D01*
X153333579Y-171794831D01*
X153266236Y-171794831D01*
X153165221Y-171761160D01*
X152996862Y-171660144D01*
X152828503Y-171491786D01*
X152727488Y-171323427D01*
X152693816Y-171222412D01*
X152693816Y-171155068D01*
X152727488Y-171054053D01*
X154343732Y-170852022D02*
X153939671Y-171256083D01*
X154141701Y-171054053D02*
X153434595Y-170346946D01*
X153468266Y-170515305D01*
X153468266Y-170649992D01*
X153434595Y-170751007D01*
X144161835Y-170866591D02*
X144094492Y-170866591D01*
X143959805Y-170799248D01*
X143892461Y-170731904D01*
X143825118Y-170597217D01*
X143825118Y-170462530D01*
X143858789Y-170361515D01*
X143959805Y-170193156D01*
X144060820Y-170092141D01*
X144229179Y-169991126D01*
X144330194Y-169957454D01*
X144464881Y-169957454D01*
X144599568Y-170024798D01*
X144666911Y-170092141D01*
X144734255Y-170226828D01*
X144734255Y-170294172D01*
X144767927Y-171607370D02*
X144363866Y-171203309D01*
X144565896Y-171405340D02*
X145273003Y-170698233D01*
X145104644Y-170731904D01*
X144969957Y-170731904D01*
X144868942Y-170698233D01*
X145912766Y-171337996D02*
X145980110Y-171405340D01*
X146013782Y-171506355D01*
X146013782Y-171573698D01*
X145980110Y-171674714D01*
X145879095Y-171843072D01*
X145710736Y-172011431D01*
X145542377Y-172112446D01*
X145441362Y-172146118D01*
X145374018Y-172146118D01*
X145273003Y-172112446D01*
X145205660Y-172045103D01*
X145171988Y-171944088D01*
X145171988Y-171876744D01*
X145205659Y-171775729D01*
X145306675Y-171607370D01*
X145475034Y-171439011D01*
X145643392Y-171337996D01*
X145744408Y-171304324D01*
X145811751Y-171304324D01*
X145912766Y-171337996D01*
X146114797Y-172954240D02*
X145710736Y-172550179D01*
X145912766Y-172752210D02*
X146619873Y-172045103D01*
X146451514Y-172078775D01*
X146316827Y-172078775D01*
X146215812Y-172045103D01*
X151184515Y-162954911D02*
X151117172Y-162954911D01*
X150982485Y-162887568D01*
X150915141Y-162820224D01*
X150847798Y-162685537D01*
X150847798Y-162550850D01*
X150881469Y-162449835D01*
X150982485Y-162281476D01*
X151083500Y-162180461D01*
X151251859Y-162079446D01*
X151352874Y-162045774D01*
X151487561Y-162045774D01*
X151622248Y-162113118D01*
X151689591Y-162180461D01*
X151756935Y-162315148D01*
X151756935Y-162382492D01*
X151790607Y-163695690D02*
X151386546Y-163291629D01*
X151588576Y-163493660D02*
X152295683Y-162786553D01*
X152127324Y-162820224D01*
X151992637Y-162820224D01*
X151891622Y-162786553D01*
X152935446Y-163426316D02*
X153002790Y-163493660D01*
X153036462Y-163594675D01*
X153036462Y-163662018D01*
X153002790Y-163763034D01*
X152901775Y-163931392D01*
X152733416Y-164099751D01*
X152565057Y-164200766D01*
X152464042Y-164234438D01*
X152396698Y-164234438D01*
X152295683Y-164200766D01*
X152228340Y-164133423D01*
X152194668Y-164032408D01*
X152194668Y-163965064D01*
X152228339Y-163864049D01*
X152329355Y-163695690D01*
X152497714Y-163527331D01*
X152666072Y-163426316D01*
X152767088Y-163392644D01*
X152834431Y-163392644D01*
X152935446Y-163426316D01*
X153373179Y-163998736D02*
X153440523Y-163998736D01*
X153541538Y-164032408D01*
X153709897Y-164200766D01*
X153743568Y-164301782D01*
X153743568Y-164369125D01*
X153709897Y-164470140D01*
X153642553Y-164537484D01*
X153507866Y-164604827D01*
X152699744Y-164604827D01*
X153137477Y-165042560D01*
X147470952Y-175278380D02*
X147137619Y-174802190D01*
X146899523Y-175278380D02*
X146899523Y-174278380D01*
X147280476Y-174278380D01*
X147375714Y-174326000D01*
X147423333Y-174373619D01*
X147470952Y-174468857D01*
X147470952Y-174611714D01*
X147423333Y-174706952D01*
X147375714Y-174754571D01*
X147280476Y-174802190D01*
X146899523Y-174802190D01*
X148423333Y-175278380D02*
X147851904Y-175278380D01*
X148137619Y-175278380D02*
X148137619Y-174278380D01*
X148042380Y-174421238D01*
X147947142Y-174516476D01*
X147851904Y-174564095D01*
X149042380Y-174278380D02*
X149137619Y-174278380D01*
X149232857Y-174326000D01*
X149280476Y-174373619D01*
X149328095Y-174468857D01*
X149375714Y-174659333D01*
X149375714Y-174897428D01*
X149328095Y-175087904D01*
X149280476Y-175183142D01*
X149232857Y-175230761D01*
X149137619Y-175278380D01*
X149042380Y-175278380D01*
X148947142Y-175230761D01*
X148899523Y-175183142D01*
X148851904Y-175087904D01*
X148804285Y-174897428D01*
X148804285Y-174659333D01*
X148851904Y-174468857D01*
X148899523Y-174373619D01*
X148947142Y-174326000D01*
X149042380Y-174278380D01*
X150328095Y-175278380D02*
X149756666Y-175278380D01*
X150042380Y-175278380D02*
X150042380Y-174278380D01*
X149947142Y-174421238D01*
X149851904Y-174516476D01*
X149756666Y-174564095D01*
X147050285Y-180832380D02*
X147050285Y-181546666D01*
X147002666Y-181689523D01*
X146907428Y-181784761D01*
X146764571Y-181832380D01*
X146669333Y-181832380D01*
X148050285Y-181832380D02*
X147478857Y-181832380D01*
X147764571Y-181832380D02*
X147764571Y-180832380D01*
X147669333Y-180975238D01*
X147574095Y-181070476D01*
X147478857Y-181118095D01*
X148669333Y-180832380D02*
X148764571Y-180832380D01*
X148859809Y-180880000D01*
X148907428Y-180927619D01*
X148955047Y-181022857D01*
X149002666Y-181213333D01*
X149002666Y-181451428D01*
X148955047Y-181641904D01*
X148907428Y-181737142D01*
X148859809Y-181784761D01*
X148764571Y-181832380D01*
X148669333Y-181832380D01*
X148574095Y-181784761D01*
X148526476Y-181737142D01*
X148478857Y-181641904D01*
X148431238Y-181451428D01*
X148431238Y-181213333D01*
X148478857Y-181022857D01*
X148526476Y-180927619D01*
X148574095Y-180880000D01*
X148669333Y-180832380D01*
X149383619Y-180927619D02*
X149431238Y-180880000D01*
X149526476Y-180832380D01*
X149764571Y-180832380D01*
X149859809Y-180880000D01*
X149907428Y-180927619D01*
X149955047Y-181022857D01*
X149955047Y-181118095D01*
X149907428Y-181260952D01*
X149336000Y-181832380D01*
X149955047Y-181832380D01*
X147304285Y-151300380D02*
X147304285Y-152014666D01*
X147256666Y-152157523D01*
X147161428Y-152252761D01*
X147018571Y-152300380D01*
X146923333Y-152300380D01*
X148304285Y-152300380D02*
X147732857Y-152300380D01*
X148018571Y-152300380D02*
X148018571Y-151300380D01*
X147923333Y-151443238D01*
X147828095Y-151538476D01*
X147732857Y-151586095D01*
X148923333Y-151300380D02*
X149018571Y-151300380D01*
X149113809Y-151348000D01*
X149161428Y-151395619D01*
X149209047Y-151490857D01*
X149256666Y-151681333D01*
X149256666Y-151919428D01*
X149209047Y-152109904D01*
X149161428Y-152205142D01*
X149113809Y-152252761D01*
X149018571Y-152300380D01*
X148923333Y-152300380D01*
X148828095Y-152252761D01*
X148780476Y-152205142D01*
X148732857Y-152109904D01*
X148685238Y-151919428D01*
X148685238Y-151681333D01*
X148732857Y-151490857D01*
X148780476Y-151395619D01*
X148828095Y-151348000D01*
X148923333Y-151300380D01*
X149590000Y-151300380D02*
X150209047Y-151300380D01*
X149875714Y-151681333D01*
X150018571Y-151681333D01*
X150113809Y-151728952D01*
X150161428Y-151776571D01*
X150209047Y-151871809D01*
X150209047Y-152109904D01*
X150161428Y-152205142D01*
X150113809Y-152252761D01*
X150018571Y-152300380D01*
X149732857Y-152300380D01*
X149637619Y-152252761D01*
X149590000Y-152205142D01*
M02*
